{"accessors" : [{"bufferView" : 0, "byteOffset" : 0, "componentType" : 5123, "count" : 1452, "type" : "SCALAR", "max" : [1233], "min" : [0]}, {"bufferView" : 1, "byteOffset" : 0, "componentType" : 5126, "count" : 1234, "type" : "VEC3", "max" : [1.7719119787216187, 3.1698989868164062, 1.132519006729126], "min" : [-1.4337199926376343, 0.15051400661468506, -1.132519006729126], "name" : "POSITION"}, {"bufferView" : 1, "byteOffset" : 12, "componentType" : 5126, "count" : 1234, "type" : "VEC2", "max" : [1, -0], "min" : [0, -1], "name" : "TEXCOORD_0"}, {"bufferView" : 1, "byteOffset" : 20, "componentType" : 5126, "count" : 1234, "type" : "VEC3", "max" : [1.000002384185791, 1.0000044107437134, 1.000002145767212], "min" : [-1.0000017881393433, -1.0000044107437134, -1.000002145767212], "name" : "NORMAL"}], "asset" : {"generator" : "Aspose.3D 22.1", "version" : "2.0"}, "buffers" : [{"uri" : "data:application/octet-stream;base64,", "byteLength" : 49376}], "bufferViews" : [{"buffer" : 0, "byteOffset" : 0, "byteLength" : 2904, "target" : 34963}, {"buffer" : 0, "byteOffset" : 2908, "byteLength" : 46464, "byteStride" : 32, "target" : 34962}], "materials" : [{"name" : "", "pbrMetallicRoughness" : {"baseColorFactor" : [0.690196, 0.690196, 0.690196, 1], "metallicFactor" : 0, "roughnessFactor" : 0}, "emissiveFactor" : [0, 0, 0], "alphaMode" : "OPAQUE", "doubleSided" : false}], "meshes" : [{"primitives" : [{"attributes" : {"POSITION" : 1, "TEXCOORD_0" : 2, "NORMAL" : 3}, "indices" : 0, "material" : 0, "mode" : 4}], "name" : ""}], "nodes" : [{"mesh" : 0, "name" : "Cylinder1"}], "scene" : 0, "scenes" : [{"nodes" : [0]}]}