{"accessors" : [{"bufferView" : 0, "byteOffset" : 0, "componentType" : 5123, "count" : 16395, "type" : "SCALAR", "max" : [13686], "min" : [0]}, {"bufferView" : 1, "byteOffset" : 0, "componentType" : 5126, "count" : 13687, "type" : "VEC3", "max" : [0.1469999998807907, 0.015645699575543404, 0.0009999970206990838], "min" : [-0.1469999998807907, -2.5890800614547516E-10, -0.10300000011920929], "name" : "POSITION"}, {"bufferView" : 1, "byteOffset" : 12, "componentType" : 5126, "count" : 13687, "type" : "VEC3", "max" : [1.0000042915344238, 1.0000042915344238, 1.0000042915344238], "min" : [-1.0000042915344238, -0.9978631734848022, -1.0000042915344238], "name" : "NORMAL"}], "asset" : {"generator" : "Aspose.3D 22.1", "version" : "2.0"}, "buffers" : [{"uri" : "data:application/octet-stream;base64,", "byteLength" : 426280}], "bufferViews" : [{"buffer" : 0, "byteOffset" : 0, "byteLength" : 32792, "target" : 34963}, {"buffer" : 0, "byteOffset" : 32796, "byteLength" : 393480, "byteStride" : 24, "target" : 34962}], "meshes" : [{"primitives" : [{"attributes" : {"POSITION" : 1, "NORMAL" : 2}, "indices" : 0, "mode" : 4}]}], "nodes" : [{"mesh" : 0, "name" : "default"}], "scene" : 0, "scenes" : [{"nodes" : [0]}]}