{"accessors" : [{"bufferView" : 0, "byteOffset" : 0, "componentType" : 5123, "count" : 13356, "type" : "SCALAR", "max" : [11129], "min" : [0]}, {"bufferView" : 1, "byteOffset" : 0, "componentType" : 5126, "count" : 11130, "type" : "VEC3", "max" : [17.888200759887695, 13.92205810546875, -13.01998233795166], "min" : [11.259888648986816, 0.008289639838039875, -19.517972946166992], "name" : "POSITION"}, {"bufferView" : 0, "byteOffset" : 26712, "componentType" : 5123, "count" : 492, "type" : "SCALAR", "max" : [425], "min" : [0]}, {"bufferView" : 2, "byteOffset" : 0, "componentType" : 5126, "count" : 426, "type" : "VEC3", "max" : [5.466695785522461, 5.323622703552246, 0.3795780539512634], "min" : [-5.466695785522461, -5.344576835632324, 0], "name" : "POSITION"}, {"bufferView" : 2, "byteOffset" : 12, "componentType" : 5126, "count" : 426, "type" : "VEC2", "max" : [0.9995005130767822, -0.0004995465278625488], "min" : [0.0004995465278625488, -0.9995005130767822], "name" : "TEXCOORD_0"}, {"bufferView" : 0, "byteOffset" : 27696, "componentType" : 5123, "count" : 56064, "type" : "SCALAR", "max" : [48545], "min" : [0]}, {"bufferView" : 3, "byteOffset" : 0, "componentType" : 5126, "count" : 48546, "type" : "VEC3", "max" : [4.669833183288574, 25.13322639465332, 4.333560943603516], "min" : [-5.886101245880127, 15.061716079711914, -5.2588019371032715], "name" : "POSITION"}, {"bufferView" : 3, "byteOffset" : 12, "componentType" : 5126, "count" : 48546, "type" : "VEC2", "max" : [1, 0.0002519926056265831], "min" : [0, -0.9918972253799438], "name" : "TEXCOORD_0"}], "asset" : {"generator" : "Aspose.3D 22.1", "version" : "2.0"}, "buffers" : [{"uri" : "data:application/octet-stream;base64,", "byteLength" : 1431232}], "bufferViews" : [{"buffer" : 0, "byteOffset" : 0, "byteLength" : 139824, "target" : 34963}, {"buffer" : 0, "byteOffset" : 139828, "byteLength" : 160272, "byteStride" : 12, "target" : 34962}, {"buffer" : 0, "byteOffset" : 300104, "byteLength" : 9840, "byteStride" : 20, "target" : 34962}, {"buffer" : 0, "byteOffset" : 309948, "byteLength" : 1121280, "byteStride" : 20, "target" : 34962}], "materials" : [{"name" : "", "pbrMetallicRoughness" : {"baseColorFactor" : [0.7372549019607844, 0.6784313725490196, 0.5019607843137255, 1], "metallicFactor" : 0, "roughnessFactor" : 0}, "emissiveFactor" : [0, 0, 0], "alphaMode" : "OPAQUE", "doubleSided" : false}, {"name" : "", "pbrMetallicRoughness" : {"baseColorFactor" : [0.4980392156862745, 0.4980392156862745, 0.4980392156862745, 1], "metallicFactor" : 0, "roughnessFactor" : 0}, "emissiveFactor" : [0, 0, 0], "alphaMode" : "OPAQUE", "doubleSided" : false}, {"name" : "", "pbrMetallicRoughness" : {"baseColorFactor" : [0.4980392156862745, 0.4980392156862745, 0.4980392156862745, 0.92], "metallicFactor" : 0, "roughnessFactor" : 0}, "emissiveFactor" : [0, 0, 0], "alphaMode" : "BLEND", "doubleSided" : false}], "meshes" : [{"primitives" : [{"attributes" : {"POSITION" : 1}, "indices" : 0, "material" : 0, "mode" : 4}], "name" : "archmodels"}, {"primitives" : [{"attributes" : {"POSITION" : 3, "TEXCOORD_0" : 4}, "indices" : 2, "material" : 1, "mode" : 4}], "name" : "archmodel0"}, {"primitives" : [{"attributes" : {"POSITION" : 6, "TEXCOORD_0" : 7}, "indices" : 5, "material" : 2, "mode" : 4}], "name" : "archmodel1"}], "nodes" : [{"matrix" : [-1.208189845085144, 1.4402732517737604E-07, -2.0926434993743896, 0, 4.129486228521273E-07, 2.416377305984497, -7.210782371203095E-08, 0, -2.0926434993743896, 3.9367785120703047E-07, 1.208189845085144, 0, -0.6045570373535156, 6.976071834564209, 0.5434494018554688, 1], "mesh" : 0, "name" : "archmodels"}, {"matrix" : [-0.5927945971488953, 0, 0, 0, 0, 0, 0.5927945971488953, 0, 0, 0.5927945971488953, 0, 0, -0.18899917602539062, 13.765548706054688, -0.19498443603515625, 1], "mesh" : 1, "name" : "archmodel0"}, {"matrix" : [0.03636346757411957, -0.014731889590620995, -0.03292533755302429, 0, 0.0008309679105877876, 0.05548630282282829, -0.023908672854304314, 0, -0.029966434463858604, -0.01157942321151495, -0.02791457064449787, 0, 1.1359176635742188, 17.419031143188477, -0.5535202026367188, 1], "mesh" : 2, "name" : "archmodel1"}], "scene" : 0, "scenes" : [{"nodes" : [0, 1, 2]}]}