<?xml version="1.0" encoding="UTF-8"?>
<svg xmlns="http://www.w3.org/2000/svg" xmlns:xlink="http://www.w3.org/1999/xlink" width="96px" height="96px" viewBox="0 0 96 96" version="1.1">
<g id="surface1">
<path style=" stroke:none;fill-rule:nonzero;fill:rgb(0%,47.843137%,80%);fill-opacity:1;" d="M 0 48 L 0 0 L 96 0 L 96 96 L 0 96 "/>
<path style=" stroke:none;fill-rule:nonzero;fill:rgb(100%,100%,100%);fill-opacity:1;" d="M 21.046875 48.167969 L 21.046875 52.078125 L 33.527344 52.078125 L 33.527344 87.601562 L 42.382812 87.601562 L 42.382812 52.078125 L 54.863281 52.078125 L 54.863281 48.238281 C 54.863281 46.078125 54.863281 44.328125 54.769531 44.28125 C 54.769531 44.207031 47.160156 44.183594 37.921875 44.183594 L 21.121094 44.257812 L 21.121094 48.191406 Z M 77.136719 44.160156 C 79.585938 44.734375 81.457031 45.839844 83.136719 47.59375 C 84.023438 48.550781 85.34375 50.230469 85.441406 50.664062 C 85.441406 50.808594 81.289062 53.617188 78.769531 55.175781 C 78.671875 55.246094 78.289062 54.839844 77.902344 54.214844 C 76.65625 52.441406 75.382812 51.671875 73.390625 51.527344 C 70.511719 51.335938 68.59375 52.847656 68.59375 55.367188 C 68.59375 56.136719 68.734375 56.566406 69.023438 57.191406 C 69.671875 58.511719 70.871094 59.304688 74.59375 60.9375 C 81.457031 63.886719 84.433594 65.832031 86.230469 68.617188 C 88.273438 71.734375 88.726562 76.632812 87.359375 80.304688 C 85.824219 84.3125 82.078125 87.023438 76.726562 87.910156 C 75.046875 88.199219 71.207031 88.152344 69.40625 87.839844 C 65.566406 87.121094 61.894531 85.199219 59.640625 82.726562 C 58.753906 81.769531 57.046875 79.199219 57.144531 79.03125 L 58.054688 78.457031 L 61.65625 76.367188 L 64.367188 74.785156 L 64.992188 75.625 C 65.785156 76.871094 67.558594 78.550781 68.59375 79.128906 C 71.710938 80.734375 75.886719 80.519531 77.953125 78.648438 C 78.839844 77.832031 79.222656 76.96875 79.222656 75.769531 C 79.222656 74.664062 79.054688 74.160156 78.503906 73.320312 C 77.734375 72.265625 76.199219 71.398438 71.878906 69.480469 C 66.910156 67.367188 64.800781 66.023438 62.832031 63.960938 C 61.703125 62.710938 60.671875 60.769531 60.191406 59.160156 C 59.832031 57.769531 59.710938 54.359375 60.046875 52.992188 C 61.078125 48.191406 64.703125 44.832031 69.886719 43.871094 C 71.566406 43.535156 75.527344 43.679688 77.183594 44.113281 Z M 77.136719 44.160156 "/>
</g>
</svg>
